<?xml version="1.0" encoding="utf-8"?>
<svg x="0pt" y="0pt" width="512pt" height="512pt" viewBox="0 0 48 48" xmlns="http://www.w3.org/2000/svg" xmlns:xlink="http://www.w3.org/1999/xlink">
  <!--Generated by AMDN-->
  <g id="Layer_1">
    <path id="Path" style="fill:#a43d41;fill-opacity:1;fill-rule:evenodd;opacity:1;stroke:#000000;stroke-linecap:round;stroke-linejoin:round;stroke-miterlimit:10;stroke-opacity:1;stroke-width:2;" d="M9.33333,37 C9.33333,37,38.6667,37,38.6667,37 C38.6667,37,46,46,46,46 C46,46,2,46,2,46 C2,46,9.33333,37,9.33333,37 z"/>
    <g id="Group">
      <path id="Path-1" style="fill:#c5bd4a;fill-opacity:1;fill-rule:nonzero;opacity:1;stroke:#000000;stroke-linecap:round;stroke-linejoin:round;stroke-miterlimit:10;stroke-opacity:1;stroke-width:2;" d="M41,43 C41,43,41,40,41,40 C37,40,32,37,28,37 C24.8377,37,24,39,24,41 C24,41.75,24,43,24,43 C24,43,41,43,41,43 z"/>
      <path id="Path_Copy" style="fill:#c5bd4a;fill-opacity:1;fill-rule:nonzero;opacity:1;stroke:#000000;stroke-linecap:round;stroke-linejoin:round;stroke-miterlimit:10;stroke-opacity:1;stroke-width:2;" d="M7,43 C7,43,7,40,7,40 C11,40,16,37,20,37 C23.1623,37,24,39,24,41 C24,41.75,24,43,24,43 C24,43,7,43,7,43 z"/>
      <path id="Path_65" style="fill:#fffab6;fill-opacity:1;fill-rule:nonzero;opacity:1;stroke:#000000;stroke-linecap:round;stroke-linejoin:round;stroke-miterlimit:10;stroke-opacity:1;stroke-width:2;" d="M10.6667,35.5 C13.7647,35.5,17.6373,33,20.7353,33 C23.1845,33,23.8333,34.6667,23.8333,36.3333 C23.8333,36.3333,24,41,24,41 C24,39,23.1623,37,20,37 C16,37,11,40,7,40 C7,40,10.6667,35.5,10.6667,35.5 z"/>
      <path id="Path_65_Copy" style="fill:#fffab6;fill-opacity:1;fill-rule:nonzero;opacity:1;stroke:#000000;stroke-linecap:round;stroke-linejoin:round;stroke-miterlimit:10;stroke-opacity:1;stroke-width:2;" d="M37.3333,35.5 C34.2353,35.5,30.3627,33,27.2647,33 C24.8155,33,24.1667,34.6667,24.1667,36.3333 C24.1667,36.3333,24,41,24,41 C24,39,24.8377,37,28,37 C32,37,37,40,41,40 C41,40,37.3333,35.5,37.3333,35.5 z"/>
    </g>
    <g id="Layer_1-1">
      <g id="Group-1">
        <g id="Group-2">
          <g id="Group-3">
            <path id="Path-1" style="fill:#9e9e9e;fill-opacity:1;fill-rule:nonzero;opacity:1;stroke:#000000;stroke-linecap:round;stroke-linejoin:round;stroke-miterlimit:10;stroke-opacity:1;stroke-width:2;" d="M16,22 C16,22,10,24,10,28 C10,32,16,32,16,32"/>
            <path id="Path_Copy" style="fill:#9e9e9e;fill-opacity:1;fill-rule:nonzero;opacity:1;stroke:#000000;stroke-linecap:round;stroke-linejoin:round;stroke-miterlimit:10;stroke-opacity:1;stroke-width:2;" d="M32.0002,22 C32.0002,22,38.0002,24,38.0002,28 C38.0002,32,32.0002,32,32.0002,32"/>
            <path id="Path-2" style="fill:none;opacity:1;stroke:#000000;stroke-linecap:round;stroke-linejoin:round;stroke-miterlimit:10;stroke-opacity:1;stroke-width:2;" d="M31.785,35.3468 C31.785,35.3468,30.1817,33.0166,30.1817,33.0166 C30.1817,33.0166,27.8516,34.6199,27.8516,34.6199"/>
            <path id="Path_Copy-1" style="fill:none;opacity:1;stroke:#000000;stroke-linecap:round;stroke-linejoin:round;stroke-miterlimit:10;stroke-opacity:1;stroke-width:2;" d="M20.1697,34.5407 C20.1697,34.5407,17.7823,33.024,17.7823,33.024 C17.7823,33.024,16.2656,35.4114,16.2656,35.4114"/>
            <path id="Path-3" style="fill:#e4e4e4;fill-opacity:1;fill-rule:evenodd;opacity:1;stroke:#000000;stroke-linecap:round;stroke-linejoin:round;stroke-miterlimit:10;stroke-opacity:1;stroke-width:2;" d="M16,23 C16,23,32,23,32,23 C32,23,32,33,32,33 C32,33,16,33,16,33 C16,33,16,23,16,23 z"/>
          </g>
          <g id="Group-4">
            <path id="Path-1" style="fill:#ffffff;fill-opacity:1;fill-rule:evenodd;opacity:1;stroke:#000000;stroke-linecap:round;stroke-linejoin:round;stroke-miterlimit:10;stroke-opacity:1;stroke-width:2;" d="M8.38136,10.6166 C8.16537,8.31722,9.77333,6.28568,11.9728,6.07909 C11.9728,6.07909,33.8763,4.0217,33.8763,4.0217 C36.0758,3.81511,38.0339,5.51169,38.2499,7.81111 C38.2499,7.81111,39.6186,22.3834,39.6186,22.3834 C39.8346,24.6827,38.2267,26.7143,36.0272,26.9209 C36.0272,26.9209,14.1237,28.9783,14.1237,28.9783 C11.9242,29.1849,9.96609,27.4883,9.75012,25.1889 C9.75012,25.1889,8.38136,10.6166,8.38136,10.6166 z"/>
            <path id="Path-2" style="fill:#ffffff;fill-opacity:1;fill-rule:nonzero;opacity:1;stroke:#000000;stroke-linecap:round;stroke-linejoin:round;stroke-miterlimit:10;stroke-opacity:1;stroke-width:2;" d="M23.5792,12.0197 C23.5792,12.0197,24.7014,23.9671,24.7014,23.9671"/>
            <path id="Path-3" style="fill:#ffffff;fill-opacity:1;fill-rule:nonzero;opacity:1;stroke:#000000;stroke-linecap:round;stroke-linejoin:round;stroke-miterlimit:10;stroke-opacity:1;stroke-width:2;" d="M27.9357,15.6281 C27.9357,15.6281,28.1227,17.6194,28.1227,17.6194"/>
            <path id="Path_Copy" style="fill:#ffffff;fill-opacity:1;fill-rule:nonzero;opacity:1;stroke:#000000;stroke-linecap:round;stroke-linejoin:round;stroke-miterlimit:10;stroke-opacity:1;stroke-width:2;" d="M19.9708,16.3763 C19.9708,16.3763,20.1578,18.3675,20.1578,18.3675"/>
            <g id="Group-5">
              <path id="Path-4" style="fill:none;opacity:1;stroke:#000000;stroke-linecap:round;stroke-linejoin:round;stroke-miterlimit:10;stroke-opacity:1;stroke-width:2;" d="M13.1885,19.0221 C13.1885,19.0221,21.1534,18.274,21.1534,18.274 C21.1534,18.274,21.621,23.2521,21.621,23.2521 C21.621,23.2521,13.6561,24.0002,13.6561,24.0002 C13.6561,24.0002,13.1885,19.0221,13.1885,19.0221 z"/>
              <path id="Path_Copy-1" style="fill:none;opacity:1;stroke:#000000;stroke-linecap:round;stroke-linejoin:round;stroke-miterlimit:10;stroke-opacity:1;stroke-width:2;" d="M27.1271,17.7129 C27.1271,17.7129,35.0921,16.9647,35.0921,16.9647 C35.0921,16.9647,35.5597,21.9428,35.5597,21.9428 C35.5597,21.9428,27.5947,22.691,27.5947,22.691 C27.5947,22.691,27.1271,17.7129,27.1271,17.7129 z"/>
              <path id="Path-5" style="fill:none;opacity:1;stroke:#000000;stroke-linecap:round;stroke-linejoin:round;stroke-miterlimit:10;stroke-opacity:1;stroke-width:2;" d="M21.3405,20.2652 C21.1855,18.6156,22.3972,17.1528,24.0468,16.9978 C25.6964,16.8429,27.1592,18.0545,27.3142,19.7041"/>
            </g>
          </g>
        </g>
      </g>
    </g>
  </g>
</svg>
